<?xml version="1.0" standalone="no"?>
<!DOCTYPE svg PUBLIC "-//W3C//DTD SVG 20010904//EN"
 "http://www.w3.org/TR/2001/REC-SVG-20010904/DTD/svg10.dtd">
<svg version="1.0" xmlns="http://www.w3.org/2000/svg"
 width="1119.000000pt" height="629.000000pt" viewBox="0 0 1119.000000 629.000000"
 preserveAspectRatio="xMidYMid meet">

<g transform="translate(0.000000,629.000000) scale(0.100000,-0.100000)"
fill="#000000" stroke="none">
<path d="M5356 5841 c-4 -5 0 -12 6 -14 8 -3 6 -6 -5 -6 -10 -1 -15 -6 -12
-12 4 -5 4 -22 0 -36 l-6 -27 -23 29 c-22 28 -24 28 -47 13 -13 -8 -52 -41
-86 -71 -127 -113 -233 -171 -407 -221 -47 -14 -115 -28 -149 -32 -59 -6 -63
-5 -64 15 -1 12 -8 35 -17 51 -13 27 -13 30 2 32 9 1 -73 5 -183 8 -117 5
-261 17 -349 30 -107 16 -151 19 -159 11 -8 -8 -7 -11 3 -11 13 0 13 -2 0 -10
-13 -9 -13 -10 0 -10 20 0 55 -40 37 -41 -6 -1 -1 -5 13 -9 l25 -8 -25 -2
c-23 -1 -23 -2 -5 -10 19 -8 19 -9 1 -9 -10 -1 -139 21 -285 49 -349 65 -411
73 -571 73 -126 0 -142 -2 -235 -33 -141 -46 -140 -45 -115 -77 15 -20 17 -28
8 -34 -15 -10 -28 -2 -28 16 0 27 -22 27 -51 -1 -16 -15 -32 -25 -35 -21 -4 3
-15 2 -25 -3 -14 -8 -19 -6 -24 9 -3 11 -12 25 -21 32 -12 10 -13 9 -8 -7 6
-15 4 -17 -6 -7 -17 15 -37 -9 -83 -103 -40 -79 -62 -141 -83 -231 -18 -76
-33 -113 -49 -113 -6 0 -67 23 -136 51 -316 130 -613 159 -892 88 -79 -20
-135 -47 -75 -37 17 3 28 1 28 -6 0 -7 16 -18 35 -25 30 -10 39 -10 52 1 14
11 15 10 8 -11 -6 -21 -5 -23 11 -17 11 4 15 4 9 -2 -5 -4 -35 -14 -65 -21
-75 -18 -211 -75 -292 -122 -197 -115 -380 -313 -486 -525 -42 -84 -97 -245
-112 -329 -6 -38 -16 -77 -20 -86 -4 -8 -6 -29 -3 -45 3 -20 2 -25 -5 -15 -6
9 -12 10 -16 3 -4 -6 -13 -9 -21 -6 -8 4 -12 11 -8 18 4 6 -1 5 -10 -2 -9 -8
-21 -11 -27 -7 -6 3 -10 -3 -10 -17 -1 -101 -22 -332 -34 -369 -23 -74 -70
-159 -130 -236 l-57 -73 55 -65 c67 -79 110 -161 127 -243 8 -38 16 -57 21
-49 5 8 8 6 8 -8 0 -14 3 -16 8 -8 4 7 22 15 39 19 30 6 30 5 36 -43 4 -26 11
-124 17 -218 13 -200 30 -307 71 -429 61 -183 158 -334 320 -497 51 -52 93
-98 93 -103 1 -5 9 -10 19 -12 26 -4 30 -9 23 -32 -5 -14 -14 -19 -32 -17 -19
2 -24 -1 -19 -13 5 -13 3 -13 -12 -1 -14 12 -16 12 -8 0 6 -11 4 -13 -11 -7
-59 22 120 -96 221 -147 177 -88 348 -127 560 -127 201 0 334 27 563 116 63
24 122 44 131 44 13 0 23 -21 41 -90 24 -96 35 -113 55 -87 7 10 22 17 34 17
16 0 31 -20 71 -99 144 -288 365 -377 800 -320 41 5 118 16 170 25 174 26 166
26 150 14 -12 -10 -10 -11 10 -6 24 5 24 4 6 -9 -11 -8 -16 -15 -10 -16 5 0
-2 -5 -16 -11 -24 -10 -24 -10 -5 -18 11 -5 14 -9 7 -9 -7 -1 -10 -6 -7 -11 3
-6 -4 -10 -17 -10 -19 -1 -20 -2 -7 -10 10 -6 75 0 184 15 211 30 407 52 549
61 69 4 114 11 123 19 9 10 10 14 1 17 -8 3 -5 11 9 25 18 18 18 21 4 30 -13
9 -9 12 22 18 76 15 298 -34 432 -94 89 -41 159 -89 262 -181 48 -44 95 -80
103 -80 8 0 38 23 67 52 29 28 56 48 60 44 4 -4 1 -11 -7 -16 -13 -9 -13 -10
0 -10 10 0 16 -11 16 -30 1 -16 -3 -30 -9 -30 -8 0 -8 -3 0 -11 7 -7 30 3 78
36 165 112 342 171 580 191 83 7 103 12 89 23 -14 10 -33 71 -23 71 6 0 7 5 4
10 -8 13 146 13 273 0 148 -16 278 -37 466 -77 94 -20 183 -38 198 -41 15 -2
26 -8 23 -12 -2 -4 8 -21 24 -38 16 -17 27 -33 24 -36 -4 -3 -2 -6 4 -6 6 0
13 -9 16 -19 6 -23 61 -36 225 -52 279 -27 517 47 623 195 l29 40 -30 31 -30
31 34 69 c40 84 96 257 127 395 14 59 28 100 35 100 7 0 83 -32 169 -70 261
-117 421 -153 662 -149 78 2 145 0 149 -3 3 -4 -5 -4 -18 -2 -30 7 -4 -11 32
-20 19 -6 21 -5 10 3 -13 9 -13 11 2 11 23 0 32 -16 12 -24 -22 -8 -8 -26 21
-26 13 0 28 -7 32 -15 7 -13 19 -12 93 6 109 26 261 99 373 179 89 64 277 251
310 308 l18 31 -41 21 -40 20 60 113 c66 124 132 312 149 424 6 39 16 143 21
230 6 87 14 174 18 193 8 33 10 35 50 34 41 -1 42 0 53 40 18 72 21 80 49 136
15 30 53 83 84 118 31 34 56 66 56 70 0 4 -16 20 -36 36 -103 82 -138 201
-164 556 -11 161 -28 286 -42 313 -7 14 -19 18 -44 15 l-35 -3 -38 100 c-84
221 -168 354 -320 506 -94 94 -183 162 -293 223 l-33 18 63 21 c34 12 61 26
59 31 -2 6 -50 35 -107 64 -144 72 -265 101 -446 109 -231 10 -394 -19 -661
-117 -128 -47 -138 -50 -150 -34 -7 10 -13 24 -13 31 0 7 -4 13 -9 13 -5 0
-17 3 -27 7 -13 5 -15 3 -9 -7 6 -10 4 -12 -8 -7 -10 4 -17 1 -18 -6 0 -7 -9
13 -20 43 -54 150 -85 221 -125 281 -82 125 -166 182 -316 216 -43 10 -78 20
-78 24 0 3 22 23 50 45 27 21 49 42 50 45 0 12 -55 20 -190 25 -152 7 -279 -7
-550 -58 -224 -42 -238 -45 -215 -48 17 -1 15 -4 -8 -14 -16 -7 -28 -16 -28
-19 2 -21 -1 -29 -20 -48 -15 -15 -18 -24 -10 -28 26 -16 -324 -60 -478 -61
-102 0 -262 19 -276 32 -7 7 -1 8 15 3 23 -7 24 -6 7 7 -17 13 -17 15 -3 27 9
8 16 24 16 36 0 13 6 25 12 27 7 3 -16 10 -51 17 -78 15 -217 64 -291 101 -58
29 -205 134 -229 163 -15 19 -27 22 -35 8z m-544 -687 c137 -43 268 -109 268
-134 0 -4 -14 -10 -31 -14 -67 -13 -112 -99 -143 -276 -50 -274 -47 -692 7
-1035 l12 -80 50 -7 c286 -39 376 -53 475 -73 l115 -23 65 63 c120 115 268
197 440 243 81 21 118 25 250 26 133 1 166 -2 233 -22 210 -60 337 -172 337
-296 0 -40 -3 -46 -21 -46 -36 0 -59 19 -59 48 0 16 -13 49 -29 74 -52 81
-119 113 -236 112 -240 -2 -488 -177 -610 -429 -57 -116 -85 -225 -92 -354
l-6 -103 31 16 c120 62 434 369 543 531 41 60 92 129 115 152 35 37 46 43 81
43 51 0 193 -70 276 -135 51 -41 73 -75 47 -75 -17 0 -61 -101 -87 -199 -18
-70 -25 -126 -26 -203 -2 -123 5 -140 50 -118 50 25 226 213 312 333 l83 117
25 122 c39 197 95 342 143 368 10 5 32 10 49 10 105 0 421 -170 421 -227 0
-12 -8 -14 -44 -9 -40 6 -46 4 -69 -23 -55 -66 -90 -214 -108 -451 -10 -140
-4 -250 14 -250 20 0 118 83 176 149 78 89 183 233 266 364 60 95 71 107 96
107 15 0 40 -10 55 -23 l27 -23 -72 -141 c-177 -349 -342 -567 -478 -634 -96
-47 -211 -23 -366 77 -58 38 -72 53 -94 100 -14 30 -30 84 -36 120 -6 35 -14
64 -17 64 -3 0 -32 -42 -65 -92 -109 -165 -234 -273 -338 -292 -49 -9 -129 14
-230 66 -143 74 -196 154 -221 331 l-12 79 -84 -104 c-115 -140 -274 -296
-345 -338 -46 -27 -70 -35 -105 -34 -56 1 -154 45 -266 119 -151 101 -197 182
-197 345 -1 113 30 216 93 317 21 34 35 65 31 68 -8 4 -316 36 -489 50 l-83 7
7 -43 c80 -547 243 -1001 385 -1074 41 -22 63 -19 181 22 99 35 109 37 124 22
21 -22 10 -43 -58 -104 -179 -162 -423 -148 -608 35 -184 182 -343 552 -440
1020 l-28 135 -213 -2 c-118 -2 -255 -5 -306 -9 l-92 -6 -24 -41 c-14 -23 -82
-150 -152 -282 -70 -132 -168 -308 -218 -392 -422 -706 -881 -976 -1407 -827
-278 79 -520 285 -520 442 0 57 46 91 96 72 22 -9 25 -15 20 -36 -11 -43 12
-90 70 -143 121 -111 325 -138 569 -76 399 101 699 375 1144 1043 107 160 137
212 123 212 -30 0 -234 -28 -359 -50 -328 -56 -625 -156 -716 -243 -29 -27
-34 -38 -30 -61 l6 -29 -51 5 c-100 10 -288 118 -349 201 -31 42 -29 70 8 111
91 104 579 196 1254 236 105 7 235 15 290 18 l99 7 34 60 c94 167 535 1001
634 1199 109 217 138 246 250 246 44 0 95 -9 150 -26z m774 -30 c79 -37 80
-42 28 -102 l-45 -52 -28 21 c-55 41 -155 10 -125 -38 6 -10 43 -29 83 -43
129 -45 169 -102 159 -224 -14 -166 -233 -226 -406 -111 l-32 22 46 56 c42 51
48 55 66 44 53 -32 65 -37 90 -37 47 0 78 17 78 44 0 30 -14 42 -85 66 -137
47 -189 120 -163 233 30 136 187 193 334 121z m334 -64 c0 -49 2 -90 3 -90 2
0 18 7 36 16 39 20 101 13 141 -16 50 -35 60 -82 60 -269 l0 -168 -66 -6 c-37
-4 -71 -4 -75 -1 -5 3 -9 72 -9 154 0 81 -3 155 -6 164 -9 23 -61 21 -74 -3
-5 -11 -10 -82 -10 -160 0 -77 -3 -142 -7 -144 -5 -3 -38 -8 -75 -12 l-68 -7
0 310 0 311 23 4 c12 2 46 5 75 6 l52 1 0 -90z m508 -93 l3 -26 36 25 c33 22
113 35 113 17 0 -23 -35 -125 -44 -128 -6 -2 -23 -6 -38 -9 -53 -12 -58 -26
-58 -171 0 -78 -4 -136 -10 -140 -5 -3 -41 -9 -80 -12 l-70 -6 0 231 0 231 48
6 c26 3 54 8 62 9 27 6 35 0 38 -27z m536 21 c38 -11 146 -104 146 -125 0 -4
-63 -48 -140 -96 -77 -49 -140 -92 -140 -97 0 -26 93 -26 145 0 l40 21 20 -26
c11 -13 28 -38 38 -54 l18 -30 -49 -25 c-80 -40 -135 -51 -197 -37 -120 27
-198 119 -199 236 -2 166 155 281 318 233z m560 0 c38 -11 146 -104 146 -125
0 -5 -63 -48 -140 -97 -77 -48 -140 -91 -140 -96 0 -26 94 -26 145 0 l40 21
20 -26 c11 -13 28 -38 38 -54 l18 -30 -49 -25 c-80 -40 -135 -51 -197 -37
-120 27 -199 120 -200 236 0 166 157 281 319 233z m631 -593 c164 -78 237
-265 162 -417 -59 -120 -177 -190 -322 -191 -67 -1 -90 4 -140 27 -73 33 -138
93 -173 161 -35 68 -38 186 -5 257 39 85 135 164 230 188 68 17 183 5 248 -25z
m-3501 -2599 c60 -29 103 -73 138 -139 18 -34 23 -58 23 -127 0 -76 -3 -91
-30 -139 -33 -60 -104 -122 -162 -142 -21 -8 -69 -13 -108 -13 -146 1 -255 85
-291 224 -63 249 195 451 430 336z m750 0 c223 -109 222 -423 -2 -533 -75 -37
-181 -39 -257 -5 -252 114 -232 473 30 559 62 20 164 11 229 -21z m1239 20
c45 -13 107 -51 107 -64 -1 -4 -18 -27 -40 -51 -37 -42 -39 -44 -62 -29 -54
35 -128 29 -128 -12 0 -25 32 -46 100 -66 73 -22 114 -64 129 -133 15 -73 0
-125 -50 -173 -45 -43 -121 -64 -190 -54 -47 7 -150 54 -156 71 -2 6 16 33 40
60 l44 49 28 -22 c50 -39 145 -24 145 23 0 19 -33 39 -98 60 -100 32 -150 100
-139 190 7 65 42 113 101 141 58 27 103 30 169 10z m-2567 -56 c22 -71 24 -69
-83 -72 l-98 -3 -3 -57 -3 -58 76 0 75 0 0 -65 0 -64 -72 -3 -73 -3 -3 -92
c-3 -106 -4 -107 -98 -101 l-49 3 -3 270 c-1 148 0 276 3 283 3 10 40 12 161
10 l157 -3 13 -45z m1990 18 c99 -52 138 -122 139 -248 0 -65 -4 -82 -29 -128
-62 -111 -152 -152 -331 -152 l-115 0 0 281 0 281 143 -4 c131 -3 146 -6 193
-30z"/>
<path d="M4359 4410 c-293 -592 -361 -732 -358 -734 2 -2 111 -6 243 -10 l238
-7 -6 43 c-13 98 -28 355 -34 600 l-7 263 -76 -155z"/>
<path d="M6864 4873 c-12 -2 -33 -16 -46 -31 -26 -27 -46 -72 -32 -72 4 0 38
19 75 42 64 39 83 58 60 58 -5 0 -15 2 -23 4 -7 2 -23 1 -34 -1z"/>
<path d="M7424 4873 c-12 -2 -33 -16 -46 -31 -26 -27 -46 -72 -32 -72 6 0 130
75 143 86 12 11 -35 23 -65 17z"/>
<path d="M7879 4257 c-48 -18 -87 -49 -118 -95 -22 -31 -26 -48 -26 -109 0
-63 3 -76 30 -115 42 -60 119 -98 197 -98 135 0 228 89 228 218 0 114 -88 200
-213 208 -38 3 -76 -1 -98 -9z"/>
<path d="M4439 1667 c-52 -35 -79 -82 -79 -137 0 -84 74 -160 155 -160 119 0
199 152 132 251 -45 68 -143 90 -208 46z"/>
<path d="M5194 1671 c-78 -47 -108 -154 -62 -221 39 -58 85 -82 144 -78 154
13 203 209 74 295 -42 29 -112 31 -156 4z"/>
<path d="M5880 1529 l0 -152 42 7 c86 14 138 70 138 151 0 85 -59 145 -142
145 l-38 0 0 -151z"/>
<path d="M3828 5623 c7 -3 16 -2 19 1 4 3 -2 6 -13 5 -11 0 -14 -3 -6 -6z"/>
<path d="M10569 5407 c-82 -35 -120 -60 -178 -122 -68 -71 -118 -179 -133
-285 -32 -219 81 -444 270 -537 75 -37 78 -38 191 -38 112 0 119 1 186 34 144
70 243 209 272 382 14 81 14 99 0 174 -31 171 -134 312 -274 377 -61 29 -79
33 -173 36 -92 2 -112 0 -161 -21z m318 -96 c80 -43 147 -114 185 -199 25 -54
32 -85 36 -158 10 -191 -78 -348 -236 -422 -50 -24 -69 -27 -157 -27 -95 0
-103 2 -163 34 -71 39 -146 115 -180 184 -13 26 -30 81 -39 123 -14 70 -14 85
0 156 19 99 49 160 107 222 89 96 164 128 295 123 80 -3 97 -7 152 -36z"/>
<path d="M10515 5227 c-3 -7 -4 -140 -3 -297 l3 -285 55 0 55 0 3 118 3 117
45 0 c56 0 72 -16 148 -146 l52 -89 60 0 c46 0 59 3 62 16 3 18 -87 180 -121
218 -18 20 -19 25 -7 29 29 10 79 73 86 108 17 94 -25 186 -97 211 -49 17
-338 17 -344 0z m309 -123 c9 -8 16 -28 16 -44 0 -46 -31 -60 -127 -60 l-83 0
0 60 0 60 89 0 c68 0 93 -4 105 -16z"/>
</g>
</svg>
